<svg width="34" height="21" viewBox="0 0 34 21" fill="none" xmlns="http://www.w3.org/2000/svg">
    <path fill-rule="evenodd" clip-rule="evenodd"
        d="M26.8931 5.59027V9.19297H23.1947V11.7155H26.8931V15.32H29.6662V11.7155H33.3636V9.10288H29.6662V5.59027H26.8931ZM10.6241 8.38252V12.4366H16.1703C15.8006 14.7789 13.6745 16.4906 10.6241 16.4906C7.2964 16.4906 4.5233 13.6978 4.5233 10.4546C4.5233 7.21135 7.20396 4.41855 10.6241 4.41855C12.1955 4.41855 13.4897 4.869 14.5989 5.95009L17.5569 3.0672C15.7081 1.44558 13.3972 0.45459 10.6241 0.45459C4.98548 0.45459 0.363647 4.95909 0.363647 10.4546C0.363647 15.9501 4.98548 20.4546 10.6241 20.4546C16.6325 20.4546 20.5149 16.3104 20.5149 10.6348C20.5149 9.91405 20.4224 9.10324 20.33 8.38252H10.6241Z"
        fill="white" />
</svg>