<svg width="44" height="44" viewBox="0 0 44 44" fill="none" xmlns="http://www.w3.org/2000/svg">
<path d="M0.5 22C0.5 10.1259 10.1259 0.5 22 0.5C33.8741 0.5 43.5 10.1259 43.5 22C43.5 33.8741 33.8741 43.5 22 43.5C10.1259 43.5 0.5 33.8741 0.5 22Z" fill="#F5FF7D" stroke="black"/>
<rect opacity="0.01" x="10" y="10" width="24" height="24" fill="white"/>
<path fill-rule="evenodd" clip-rule="evenodd" d="M31.4936 16.2386C31.3848 13.8912 29.4478 12.022 27.0734 12.022H22.1894L21.9806 12.0268C19.6276 12.1358 17.7544 14.0766 17.7544 16.456V17.389H19.2544V16.456L19.2594 16.2835C19.3486 14.7429 20.6256 13.522 22.1894 13.522H27.0734L27.2453 13.5269C28.781 13.6159 29.9984 14.8889 29.9984 16.447V27.587L29.9934 27.7594C29.9041 29.3 28.6263 30.522 27.0634 30.522H22.1784L22.0066 30.517C20.472 30.428 19.2544 29.1543 19.2544 27.597V26.655H17.7544V27.597L17.7595 27.8113C17.8713 30.1552 19.8072 32.022 22.1784 32.022H27.0634L27.2721 32.0171C29.6245 31.9081 31.4984 29.9662 31.4984 27.587V16.447L31.4936 16.2386ZM22.3555 19.6372L23.414 18.5744L26.8756 22.0218L23.414 25.4692L22.3555 24.4064L23.9963 22.7718H13.7715V21.2718H23.9961L22.3555 19.6372Z" fill="black"/>
</svg>
