<svg width="29" height="24" viewBox="0 0 29 24" fill="none" xmlns="http://www.w3.org/2000/svg">
<path fill-rule="evenodd" clip-rule="evenodd" d="M8.89669 23.4546C19.4631 23.4546 25.2415 14.6066 25.2415 6.93437C25.2415 6.68295 25.2365 6.43278 25.2251 6.18373C26.3466 5.36426 27.3217 4.34171 28.0909 3.17743C27.0615 3.63964 25.9538 3.95105 24.7918 4.09154C25.9778 3.37282 26.8885 2.23537 27.3179 0.879663C26.2077 1.54472 24.9788 2.02855 23.6703 2.28902C22.622 1.1604 21.1291 0.45459 19.477 0.45459C16.3044 0.45459 13.7315 3.05495 13.7315 6.26037C13.7315 6.71612 13.782 7.15919 13.8806 7.58426C9.10635 7.34167 4.87264 5.03111 2.03971 1.51789C1.5459 2.37574 1.26165 3.37282 1.26165 4.43624C1.26165 6.45066 2.27592 8.22895 3.81805 9.26927C2.87579 9.23995 1.99043 8.97823 1.21618 8.54297C1.21494 8.5672 1.21494 8.59142 1.21494 8.61689C1.21494 11.4293 3.19544 13.7769 5.82374 14.3092C5.34125 14.4419 4.83355 14.5135 4.30939 14.5135C3.93934 14.5135 3.57938 14.4764 3.22949 14.4087C3.96074 16.7156 6.08146 18.3942 8.59608 18.4416C6.62958 19.9989 4.15282 20.927 1.46123 20.927C0.997776 20.927 0.54048 20.9002 0.0909119 20.8465C2.63331 22.4934 5.65194 23.4546 8.89669 23.4546" fill="white"/>
</svg>
